<svg width="64" height="82" viewBox="0 0 64 82" fill="none" xmlns="http://www.w3.org/2000/svg">
<path d="M55.485 82H38.495C30.745 82 23.615 77.4472 20.33 70.4075C20.17 70.0615 20.015 69.7055 19.875 69.3495C19.7 68.9534 18.89 66.9428 18.575 63.478C8.205 62.7209 0 54.0165 0 43.4318V8.53895C0 3.83074 3.82 0 8.515 0H13.645C18.34 0 22.16 3.83074 22.16 8.53895V59.8178H55.485C60.18 59.8178 64 63.6485 64 68.3567V73.4661C64 78.1693 60.18 82 55.485 82ZM22.3 63.5282C22.6 66.3461 23.255 67.8303 23.265 67.8503L23.305 67.9456C23.425 68.2464 23.555 68.5473 23.69 68.8381C26.365 74.5842 32.18 78.2946 38.5 78.2946H55.49C58.145 78.2946 60.3 76.1285 60.3 73.4711V68.3617C60.3 65.6993 58.14 63.5382 55.49 63.5382H22.3V63.5282ZM8.515 3.71041C5.86 3.71041 3.7 5.87648 3.7 8.53895V43.4318C3.7 51.9307 10.185 58.9403 18.455 59.7376V8.53895C18.455 5.87648 16.295 3.71542 13.645 3.71542H8.515V3.71041Z" fill="#23231E"/>
</svg>
